<svg xmlns="http://www.w3.org/2000/svg" width="1530.775" height="1170.352" viewBox="0 0 1530.775 1170.352">
  <g opacity=".67" transform="rotate(-29.999882 767.51224519 587.19575495)">
    <path fill="none" stroke="rgb(60,74,76)" stroke-dasharray="0 0 0 0" stroke-linecap="butt" stroke-linejoin="miter" stroke-width=".25" d="M28.85842431 668.489718s108.00600306 164.93532015 328.6140093 164.93532015c220.60800622 0 395.71561117-284.89951182 568.98481607-284.89951182 173.2692049 0 186.29120526 153.32189686 579.55561638 153.32189686"/>
    <path fill="none" stroke="rgb(60,74,76)" stroke-dasharray="0 0 0 0" stroke-linecap="butt" stroke-linejoin="miter" stroke-width=".306" d="M28.85842431 665.6481357s107.85280305 155.91638504 327.69480926 155.91638504c219.84200622 0 393.26441112-268.34420627 568.98481608-268.34420627 175.72040497 0 190.58080539 137.01368543 580.4748164 137.01368543"/>
    <path fill="none" stroke="rgb(60,74,76)" stroke-dasharray="0 0 0 0" stroke-linecap="butt" stroke-linejoin="miter" stroke-width=".363" d="M28.85842431 662.8065534s107.54640304 146.89744994 326.92880924 146.89744994c219.3824062 0 390.66001104-251.78890073 568.98481608-251.78890073s194.8704055 120.705474 581.24081643 120.705474"/>
    <path fill="none" stroke="rgb(60,74,76)" stroke-dasharray="0 0 0 0" stroke-linecap="butt" stroke-linejoin="miter" stroke-width=".419" d="M28.85842431 659.9649711s107.39320304 137.87851484 326.16280922 137.87851484c218.76960618 0 388.05561097-235.2335952 568.83161608-235.2335952 180.7760051 0 199.16000562 104.39726258 582.16001645 104.39726258"/>
    <path fill="none" stroke="rgb(60,74,76)" stroke-dasharray="0 0 0 0" stroke-linecap="butt" stroke-linejoin="miter" stroke-width=".476" d="M28.85842431 657.12338881s107.08680303 128.73603266 325.2436092 128.73603266c218.15680616 0 385.6044109-218.55474258 568.83161607-218.55474258 183.22720518 0 203.60280575 87.96550408 582.92601647 87.96550408"/>
    <path fill="none" stroke="rgb(60,74,76)" stroke-dasharray="0 0 0 0" stroke-linecap="butt" stroke-linejoin="miter" stroke-width=".532" d="M28.85842431 654.28180652s106.93360303 119.71709755 324.47760917 119.71709755c217.54400615 0 383.15321083-201.99943704 568.83161608-201.99943704 185.67840525 0 207.89240587 71.65729265 583.8452165 71.65729265"/>
    <path fill="none" stroke="rgb(60,74,76)" stroke-dasharray="0 0 0 0" stroke-linecap="butt" stroke-linejoin="miter" stroke-width=".589" d="M28.85842431 651.44022422s106.62720302 110.69816245 323.55840915 110.69816245 380.54881075-185.4441315 568.83161607-185.4441315c188.28280532 0 212.182006 55.34908122 584.61121652 55.34908122"/>
    <path fill="none" stroke="rgb(60,74,76)" stroke-dasharray="0 0 0 0" stroke-linecap="butt" stroke-linejoin="miter" stroke-width=".645" d="M28.85842431 648.59864193S135.33242732 750.1543222 351.65083344 750.1543222c216.3184061 0 377.94441068-168.7652789 568.83161607-168.7652789 190.8872054 0 216.62480612 39.0408698 585.53041655 39.0408698"/>
    <path fill="none" stroke="rgb(60,74,76)" stroke-dasharray="0 0 0 0" stroke-linecap="butt" stroke-linejoin="miter" stroke-width=".702" d="M28.85842431 645.75705963s106.167603 92.53674517 322.0264091 92.53674517c215.7056061 0 375.49321062-152.20997336 568.83161608-152.20997336s220.91440624 22.6091113 586.29641657 22.6091113"/>
    <path fill="none" stroke="rgb(60,74,76)" stroke-dasharray="0 0 0 0" stroke-linecap="butt" stroke-linejoin="miter" stroke-width=".758" d="M28.85842431 642.91547734s106.014403 83.51781006 321.10720908 83.51781006 372.88881054-135.53112076 568.83161607-135.53112076c195.94280554 0 225.20400637 6.30089987 587.2156166 6.30089987"/>
    <path fill="none" stroke="rgb(60,74,76)" stroke-dasharray="0 0 0 0" stroke-linecap="butt" stroke-linejoin="miter" stroke-width=".815" d="M28.85842431 640.07389504s105.861203 74.3753279 320.34120906 74.3753279 370.43761047-118.97581522 568.83161607-118.97581522 229.49360649-10.00731156 587.98161662-10.00731156"/>
    <path fill="none" stroke="rgb(60,74,76)" stroke-dasharray="0 0 0 0" stroke-linecap="butt" stroke-linejoin="miter" stroke-width=".871" d="M28.85842431 637.23231275s105.55480299 65.35639278 319.42200903 65.35639278c213.86720604 0 367.8332104-102.42050967 568.83161608-102.42050967 200.99840568 0 233.9364066-26.31552299 588.90081664-26.31552299"/>
    <path fill="none" stroke="rgb(60,74,76)" stroke-dasharray="0 0 0 0" stroke-linecap="butt" stroke-linejoin="miter" stroke-width=".927" d="M28.85842431 634.39073046s105.40160298 56.33745767 318.656009 56.33745767c213.25440604 0 365.38201033-85.74165707 568.67841608-85.74165707 203.44960575 0 238.22600673-42.74728148 589.66681666-42.74728148"/>
    <path fill="none" stroke="rgb(60,74,76)" stroke-dasharray="0 0 0 0" stroke-linecap="butt" stroke-linejoin="miter" stroke-width=".984" d="M28.85842431 631.54914816s105.09520297 47.31852256 317.89000899 47.31852256c212.641606 0 362.77761025-69.18635152 568.67841607-69.18635152 205.90080582 0 242.51560685-59.05549291 590.58601669-59.05549291"/>
    <path fill="none" stroke="rgb(60,74,76)" stroke-dasharray="0 0 0 0" stroke-linecap="butt" stroke-linejoin="miter" stroke-width="1.04" d="M28.85842431 628.70756587s104.94200297 38.1760404 316.97080896 38.1760404c212.028806 0 360.32641018-52.631046 568.67841607-52.631046 208.35200589 0 246.95840698-75.36370433 591.50521672-75.36370433"/>
    <path fill="none" stroke="rgb(60,74,76)" stroke-dasharray="0 0 0 0" stroke-linecap="butt" stroke-linejoin="miter" stroke-width="1.097" d="M28.85842431 625.86598357s104.63560296 29.15710529 316.20480894 29.15710529c211.56920598 0 357.7220101-36.07574044 568.67841607-36.07574044 210.95640596 0 251.2480071-91.67191577 592.27121674-91.67191577"/>
    <path fill="none" stroke="rgb(60,74,76)" stroke-dasharray="0 0 0 0" stroke-linecap="butt" stroke-linejoin="miter" stroke-width="1.153" d="M28.85842431 622.90085422s104.48240296 20.13817018 315.28560891 20.13817018c210.80320596 0 355.27081004-19.39688784 568.67841607-19.39688784 213.40760604 0 255.53760723-108.10367426 593.19041677-108.10367426"/>
    <path fill="none" stroke="rgb(60,74,76)" stroke-dasharray="0 0 0 0" stroke-linecap="butt" stroke-linejoin="miter" stroke-width="1.21" d="M28.85842431 620.05927192s104.32920295 10.99568802 314.5196089 10.99568802c210.19040593 0 352.66640996-2.8415823 568.67841606-2.8415823s259.82720735-124.28833863 593.95641679-124.28833863"/>
    <path fill="none" stroke="rgb(60,74,76)" stroke-dasharray="0 0 0 0" stroke-linecap="butt" stroke-linejoin="miter" stroke-width="1.266" d="M28.85842431 617.21768963s104.02280294 1.9767529 313.60040887 1.9767529c209.57760592 0 350.2152099 13.8372703 568.67841607 13.8372703 218.46320617 0 264.27000747-140.72009712 594.8756168-140.72009712"/>
    <path fill="none" stroke="rgb(60,74,76)" stroke-dasharray="0 0 0 0" stroke-linecap="butt" stroke-linejoin="miter" stroke-width="1.323" d="M28.85842431 614.37610734s103.86960294-7.04218221 312.83440884-7.04218221c208.96480591 0 347.61080983 30.39257585 568.67841608 30.39257585 221.06760624 0 268.55960758-157.02830856 595.64161683-157.02830856"/>
    <path fill="none" stroke="rgb(60,74,76)" stroke-dasharray="0 0 0 0" stroke-linecap="butt" stroke-linejoin="miter" stroke-width="1.379" d="M28.85842431 611.53452504s103.56320293-16.06111732 312.06840882-16.06111732c208.5052059 0 345.00640975 46.9478814 568.52521607 46.9478814 223.51880632 0 273.00240771-173.33651999 596.56081686-173.33651999"/>
    <path fill="none" stroke="rgb(60,74,76)" stroke-dasharray="0 0 0 0" stroke-linecap="butt" stroke-linejoin="miter" stroke-width="1.435" d="M28.85842431 608.69294275s103.41000293-25.20359949 311.1492088-25.20359949c207.73920587 0 342.55520968 63.626734 568.52521606 63.626734 225.97000639 0 277.29200784-189.76827848 597.32681688-189.76827848"/>
    <path fill="none" stroke="rgb(60,74,76)" stroke-dasharray="0 0 0 0" stroke-linecap="butt" stroke-linejoin="miter" stroke-width="1.492" d="M28.85842431 605.85136045s103.10360292-34.2225346 310.38320878-34.2225346c207.27960585 0 339.9508096 80.18203954 568.52521606 80.18203954 228.57440646 0 281.58160796-206.0764899 598.2460169-206.0764899"/>
    <path fill="none" stroke="rgb(60,74,76)" stroke-dasharray="0 0 0 0" stroke-linecap="butt" stroke-linejoin="miter" stroke-width="1.548" d="M28.85842431 603.00977816s102.95040291-43.2414697 309.46400875-43.2414697c206.51360584 0 337.49960954 96.73734507 568.52521607 96.73734507 231.02560652 0 285.87120807-222.38470133 599.01201692-222.38470133"/>
    <path fill="none" stroke="rgb(60,74,76)" stroke-dasharray="0 0 0 0" stroke-linecap="butt" stroke-linejoin="miter" stroke-width="1.605" d="M28.85842431 600.16819586S131.65562721 547.784244 337.55643304 547.784244c205.90080582 0 334.89520946 113.41619768 568.52521606 113.41619768 233.6300066 0 290.3140082-238.69291276 599.93121696-238.69291276"/>
    <path fill="none" stroke="rgb(60,74,76)" stroke-dasharray="0 0 0 0" stroke-linecap="butt" stroke-linejoin="miter" stroke-width="1.661" d="M28.85842431 597.32661357s102.4908029-61.40288698 307.9320087-61.40288698c205.44120581 0 332.2908094 129.97150322 568.52521607 129.97150322 236.23440668 0 294.60360833-255.0011242 600.69721698-255.0011242"/>
    <path fill="none" stroke="rgb(60,74,76)" stroke-dasharray="0 0 0 0" stroke-linecap="butt" stroke-linejoin="miter" stroke-width="1.718" d="M28.85842431 594.48503127s102.3376029-70.42182209 307.01280868-70.42182209 329.83960932 146.65035583 568.52521607 146.65035583c238.68560674 0 298.89320844-271.55642974 601.616417-271.55642974"/>
    <path fill="none" stroke="rgb(60,74,76)" stroke-dasharray="0 0 0 0" stroke-linecap="butt" stroke-linejoin="miter" stroke-width="1.774" d="M28.85842431 591.64344898s102.03120289-79.4407572 306.24680866-79.4407572 327.38840925 163.20566137 568.52521606 163.20566137c241.13680682 0 303.33600858-287.74109412 602.53561703-287.74109412"/>
    <path fill="none" stroke="rgb(60,74,76)" stroke-dasharray="0 0 0 0" stroke-linecap="butt" stroke-linejoin="miter" stroke-width="1.831" d="M28.85842431 588.80186668s101.87800288-88.58323936 305.32760863-88.58323936 324.78400918 179.7609669 568.37201606 179.7609669c243.58800689 0 307.7788087-304.04930554 603.45481706-304.04930554"/>
    <path fill="none" stroke="rgb(60,74,76)" stroke-dasharray="0 0 0 0" stroke-linecap="butt" stroke-linejoin="miter" stroke-width="1.887" d="M28.85842431 585.96028439s101.57160287-97.60217448 304.56160861-97.60217448c202.99000574 0 322.33280911 196.43981951 568.37201606 196.43981951 246.03920696 0 312.06840882-320.48106403 604.22081708-320.48106403"/>
    <path fill="none" stroke="rgb(60,74,76)" stroke-dasharray="0 0 0 0" stroke-linecap="butt" stroke-linejoin="miter" stroke-width="1.944" d="M28.85842431 583.1187021S130.27682718 476.4975925 332.6540329 476.4975925c202.37720572 0 319.72840903 212.99512506 568.37201606 212.99512506 248.64360703 0 316.20480894-336.91282252 604.9868171-336.91282252"/>
    <path fill="none" stroke="rgb(60,74,76)" stroke-dasharray="0 0 0 0" stroke-linecap="butt" stroke-linejoin="miter" stroke-width="2" d="M28.85842431 580.2771198s101.11200286-115.76359175 302.87640856-115.76359175 317.12400897 229.5504306 568.37201607 229.5504306 320.64760906-353.0974869 605.90601712-353.0974869"/>
  </g>
</svg>
